<svg width="1440" height="775" viewBox="0 0 1440 775" fill="none" xmlns="http://www.w3.org/2000/svg">
<rect width="500" height="1" transform="translate(470.5 261.5)" fill="url(#paint0_linear_217_700)"/>
<rect width="600" height="200" transform="translate(420.5 160)" fill="url(#paint1_radial_217_700)"/>
<g filter="url(#filter0_f_217_700)">
<rect width="1361" height="632" transform="translate(40 384)" fill="white" fill-opacity="0.01"/>
<g opacity="0.2">
<rect width="1108" height="632" transform="translate(166.5 384)" fill="url(#paint2_linear_217_700)"/>
</g>
</g>
<rect width="101.91" height="1" transform="translate(670 507)" fill="url(#paint3_linear_217_700)"/>
<path d="M521.458 412.482H523.263L526.873 418.559H527.026L530.637 412.482H532.442L527.738 420.135V425.5H526.162V420.135L521.458 412.482ZM536.863 425.703C535.981 425.703 535.208 425.494 534.543 425.074C533.882 424.655 533.365 424.068 532.992 423.313C532.623 422.559 532.439 421.678 532.439 420.669C532.439 419.652 532.623 418.764 532.992 418.006C533.365 417.247 533.882 416.658 534.543 416.239C535.208 415.819 535.981 415.609 536.863 415.609C537.744 415.609 538.515 415.819 539.177 416.239C539.842 416.658 540.359 417.247 540.728 418.006C541.1 418.764 541.287 419.652 541.287 420.669C541.287 421.678 541.1 422.559 540.728 423.313C540.359 424.068 539.842 424.655 539.177 425.074C538.515 425.494 537.744 425.703 536.863 425.703ZM536.863 424.356C537.532 424.356 538.083 424.184 538.515 423.841C538.948 423.498 539.268 423.046 539.475 422.487C539.683 421.928 539.787 421.322 539.787 420.669C539.787 420.016 539.683 419.408 539.475 418.845C539.268 418.281 538.948 417.826 538.515 417.478C538.083 417.131 537.532 416.957 536.863 416.957C536.193 416.957 535.642 417.131 535.21 417.478C534.778 417.826 534.458 418.281 534.25 418.845C534.043 419.408 533.939 420.016 533.939 420.669C533.939 421.322 534.043 421.928 534.25 422.487C534.458 423.046 534.778 423.498 535.21 423.841C535.642 424.184 536.193 424.356 536.863 424.356ZM549.73 421.508V415.736H551.23V425.5H549.73V423.847H549.628C549.399 424.343 549.043 424.765 548.56 425.112C548.077 425.456 547.467 425.627 546.73 425.627C546.119 425.627 545.577 425.494 545.102 425.227C544.628 424.955 544.255 424.549 543.984 424.006C543.712 423.46 543.577 422.771 543.577 421.94V415.736H545.077V421.839C545.077 422.551 545.276 423.118 545.674 423.542C546.077 423.966 546.59 424.178 547.213 424.178C547.586 424.178 547.965 424.082 548.351 423.892C548.74 423.701 549.067 423.409 549.329 423.015C549.596 422.62 549.73 422.118 549.73 421.508ZM553.978 425.5V415.736H555.427V417.211H555.529C555.707 416.728 556.029 416.336 556.495 416.035C556.961 415.734 557.487 415.584 558.071 415.584C558.181 415.584 558.319 415.586 558.484 415.59C558.65 415.594 558.775 415.601 558.86 415.609V417.135C558.809 417.122 558.692 417.103 558.51 417.078C558.332 417.048 558.143 417.033 557.944 417.033C557.47 417.033 557.046 417.133 556.673 417.332C556.304 417.527 556.012 417.798 555.796 418.145C555.584 418.489 555.478 418.881 555.478 419.321V425.5H553.978ZM570.02 415.736V417.008H564.757V415.736H570.02ZM566.333 425.5V414.389C566.333 413.829 566.465 413.363 566.727 412.99C566.99 412.617 567.331 412.338 567.751 412.151C568.17 411.965 568.613 411.872 569.079 411.872C569.448 411.872 569.749 411.901 569.982 411.961C570.215 412.02 570.389 412.075 570.503 412.126L570.071 413.423C569.995 413.397 569.889 413.365 569.753 413.327C569.622 413.289 569.448 413.27 569.232 413.27C568.736 413.27 568.378 413.395 568.158 413.645C567.941 413.895 567.833 414.262 567.833 414.745V425.5H566.333ZM578.276 421.508V415.736H579.776V425.5H578.276V423.847H578.174C577.945 424.343 577.589 424.765 577.106 425.112C576.623 425.456 576.013 425.627 575.275 425.627C574.665 425.627 574.123 425.494 573.648 425.227C573.173 424.955 572.8 424.549 572.529 424.006C572.258 423.46 572.122 422.771 572.122 421.94V415.736H573.623V421.839C573.623 422.551 573.822 423.118 574.22 423.542C574.623 423.966 575.135 424.178 575.758 424.178C576.131 424.178 576.511 424.082 576.896 423.892C577.286 423.701 577.612 423.409 577.875 423.015C578.142 422.62 578.276 422.118 578.276 421.508ZM586.769 415.736V417.008H581.71V415.736H586.769ZM583.184 413.397H584.685V422.703C584.685 423.127 584.746 423.445 584.869 423.657C584.996 423.864 585.157 424.004 585.352 424.076C585.551 424.144 585.761 424.178 585.981 424.178C586.147 424.178 586.282 424.169 586.388 424.152C586.494 424.131 586.579 424.114 586.642 424.102L586.947 425.449C586.846 425.487 586.704 425.525 586.522 425.564C586.339 425.606 586.108 425.627 585.829 425.627C585.405 425.627 584.99 425.536 584.583 425.354C584.18 425.172 583.845 424.894 583.578 424.521C583.316 424.148 583.184 423.678 583.184 423.11V413.397ZM595.179 421.508V415.736H596.679V425.5H595.179V423.847H595.077C594.849 424.343 594.493 424.765 594.01 425.112C593.526 425.456 592.916 425.627 592.179 425.627C591.569 425.627 591.026 425.494 590.552 425.227C590.077 424.955 589.704 424.549 589.433 424.006C589.162 423.46 589.026 422.771 589.026 421.94V415.736H590.526V421.839C590.526 422.551 590.725 423.118 591.124 423.542C591.526 423.966 592.039 424.178 592.662 424.178C593.035 424.178 593.414 424.082 593.8 423.892C594.19 423.701 594.516 423.409 594.779 423.015C595.046 422.62 595.179 422.118 595.179 421.508ZM599.427 425.5V415.736H600.876V417.211H600.978C601.156 416.728 601.478 416.336 601.944 416.035C602.41 415.734 602.936 415.584 603.521 415.584C603.631 415.584 603.768 415.586 603.934 415.59C604.099 415.594 604.224 415.601 604.309 415.609V417.135C604.258 417.122 604.141 417.103 603.959 417.078C603.781 417.048 603.593 417.033 603.393 417.033C602.919 417.033 602.495 417.133 602.122 417.332C601.753 417.527 601.461 417.798 601.245 418.145C601.033 418.489 600.927 418.881 600.927 419.321V425.5H599.427ZM609.883 425.703C608.943 425.703 608.131 425.496 607.449 425.08C606.771 424.661 606.247 424.076 605.879 423.326C605.514 422.572 605.332 421.695 605.332 420.694C605.332 419.694 605.514 418.813 605.879 418.05C606.247 417.283 606.76 416.686 607.417 416.258C608.078 415.825 608.849 415.609 609.731 415.609C610.239 415.609 610.742 415.694 611.237 415.863C611.733 416.033 612.184 416.308 612.591 416.69C612.998 417.067 613.322 417.567 613.564 418.19C613.805 418.813 613.926 419.58 613.926 420.491V421.127H606.4V419.83H612.401C612.401 419.279 612.29 418.787 612.07 418.355C611.854 417.923 611.545 417.582 611.142 417.332C610.744 417.082 610.273 416.957 609.731 416.957C609.133 416.957 608.616 417.105 608.18 417.402C607.748 417.694 607.415 418.076 607.182 418.546C606.949 419.016 606.832 419.521 606.832 420.059V420.923C606.832 421.661 606.959 422.286 607.214 422.798C607.472 423.307 607.83 423.695 608.288 423.962C608.746 424.224 609.277 424.356 609.883 424.356C610.278 424.356 610.633 424.301 610.951 424.191C611.273 424.076 611.551 423.907 611.784 423.682C612.017 423.453 612.197 423.169 612.324 422.83L613.774 423.237C613.621 423.729 613.365 424.161 613.004 424.534C612.644 424.902 612.199 425.191 611.67 425.398C611.14 425.602 610.544 425.703 609.883 425.703ZM624.929 425.703C624.116 425.703 623.397 425.498 622.774 425.087C622.152 424.672 621.664 424.087 621.312 423.332C620.961 422.574 620.785 421.678 620.785 420.644C620.785 419.618 620.961 418.728 621.312 417.974C621.664 417.22 622.154 416.637 622.781 416.226C623.408 415.815 624.133 415.609 624.955 415.609C625.59 415.609 626.093 415.715 626.461 415.927C626.834 416.135 627.118 416.372 627.313 416.639C627.512 416.902 627.667 417.118 627.777 417.287H627.904V412.482H629.404V425.5H627.955V424H627.777C627.667 424.178 627.51 424.402 627.307 424.674C627.103 424.941 626.813 425.18 626.436 425.392C626.059 425.6 625.557 425.703 624.929 425.703ZM625.133 424.356C625.734 424.356 626.243 424.199 626.658 423.885C627.074 423.568 627.389 423.129 627.605 422.57C627.822 422.006 627.93 421.356 627.93 420.618C627.93 419.889 627.824 419.252 627.612 418.705C627.4 418.154 627.086 417.726 626.671 417.421C626.256 417.111 625.743 416.957 625.133 416.957C624.497 416.957 623.967 417.12 623.544 417.446C623.124 417.768 622.808 418.207 622.596 418.762C622.389 419.313 622.285 419.932 622.285 420.618C622.285 421.313 622.391 421.945 622.603 422.512C622.819 423.076 623.137 423.525 623.556 423.86C623.98 424.191 624.506 424.356 625.133 424.356ZM636.454 425.703C635.513 425.703 634.701 425.496 634.019 425.08C633.341 424.661 632.818 424.076 632.449 423.326C632.085 422.572 631.902 421.695 631.902 420.694C631.902 419.694 632.085 418.813 632.449 418.05C632.818 417.283 633.331 416.686 633.987 416.258C634.648 415.825 635.42 415.609 636.301 415.609C636.81 415.609 637.312 415.694 637.808 415.863C638.303 416.033 638.755 416.308 639.162 416.69C639.568 417.067 639.893 417.567 640.134 418.19C640.376 418.813 640.496 419.58 640.496 420.491V421.127H632.97V419.83H638.971C638.971 419.279 638.861 418.787 638.64 418.355C638.424 417.923 638.115 417.582 637.712 417.332C637.314 417.082 636.844 416.957 636.301 416.957C635.704 416.957 635.187 417.105 634.75 417.402C634.318 417.694 633.985 418.076 633.752 418.546C633.519 419.016 633.403 419.521 633.403 420.059V420.923C633.403 421.661 633.53 422.286 633.784 422.798C634.042 423.307 634.401 423.695 634.858 423.962C635.316 424.224 635.848 424.356 636.454 424.356C636.848 424.356 637.204 424.301 637.522 424.191C637.844 424.076 638.121 423.907 638.354 423.682C638.587 423.453 638.768 423.169 638.895 422.83L640.344 423.237C640.191 423.729 639.935 424.161 639.575 424.534C639.215 424.902 638.77 425.191 638.24 425.398C637.71 425.602 637.115 425.703 636.454 425.703ZM649.694 417.923L648.347 418.304C648.262 418.08 648.137 417.862 647.972 417.65C647.811 417.434 647.59 417.256 647.311 417.116C647.031 416.976 646.673 416.906 646.236 416.906C645.639 416.906 645.141 417.044 644.743 417.319C644.349 417.59 644.151 417.936 644.151 418.355C644.151 418.728 644.287 419.023 644.558 419.239C644.83 419.455 645.253 419.635 645.83 419.779L647.279 420.135C648.152 420.347 648.802 420.671 649.23 421.108C649.658 421.54 649.872 422.097 649.872 422.779C649.872 423.339 649.711 423.839 649.389 424.28C649.071 424.72 648.626 425.068 648.054 425.322C647.482 425.576 646.817 425.703 646.058 425.703C645.063 425.703 644.238 425.487 643.586 425.055C642.933 424.623 642.52 423.991 642.346 423.161L643.77 422.805C643.906 423.33 644.162 423.724 644.539 423.987C644.921 424.25 645.419 424.381 646.033 424.381C646.732 424.381 647.287 424.233 647.698 423.936C648.114 423.635 648.321 423.275 648.321 422.856C648.321 422.517 648.203 422.233 647.965 422.004C647.728 421.771 647.364 421.597 646.872 421.483L645.245 421.101C644.351 420.889 643.694 420.561 643.274 420.116C642.859 419.667 642.651 419.105 642.651 418.432C642.651 417.881 642.806 417.393 643.115 416.97C643.429 416.546 643.855 416.213 644.393 415.972C644.935 415.73 645.55 415.609 646.236 415.609C647.203 415.609 647.961 415.821 648.512 416.245C649.067 416.669 649.461 417.228 649.694 417.923ZM656.224 425.703C655.283 425.703 654.472 425.496 653.79 425.08C653.112 424.661 652.588 424.076 652.22 423.326C651.855 422.572 651.673 421.695 651.673 420.694C651.673 419.694 651.855 418.813 652.22 418.05C652.588 417.283 653.101 416.686 653.758 416.258C654.419 415.825 655.19 415.609 656.072 415.609C656.58 415.609 657.082 415.694 657.578 415.863C658.074 416.033 658.525 416.308 658.932 416.69C659.339 417.067 659.663 417.567 659.905 418.19C660.146 418.813 660.267 419.58 660.267 420.491V421.127H652.741V419.83H658.741C658.741 419.279 658.631 418.787 658.411 418.355C658.195 417.923 657.885 417.582 657.483 417.332C657.084 417.082 656.614 416.957 656.072 416.957C655.474 416.957 654.957 417.105 654.521 417.402C654.088 417.694 653.756 418.076 653.523 418.546C653.29 419.016 653.173 419.521 653.173 420.059V420.923C653.173 421.661 653.3 422.286 653.554 422.798C653.813 423.307 654.171 423.695 654.629 423.962C655.086 424.224 655.618 424.356 656.224 424.356C656.618 424.356 656.974 424.301 657.292 424.191C657.614 424.076 657.892 423.907 658.125 423.682C658.358 423.453 658.538 423.169 658.665 422.83L660.114 423.237C659.962 423.729 659.705 424.161 659.345 424.534C658.985 424.902 658.54 425.191 658.01 425.398C657.481 425.602 656.885 425.703 656.224 425.703ZM662.549 425.5V415.736H663.998V417.211H664.1C664.278 416.728 664.6 416.336 665.066 416.035C665.532 415.734 666.058 415.584 666.642 415.584C666.753 415.584 666.89 415.586 667.056 415.59C667.221 415.594 667.346 415.601 667.431 415.609V417.135C667.38 417.122 667.263 417.103 667.081 417.078C666.903 417.048 666.715 417.033 666.515 417.033C666.041 417.033 665.617 417.133 665.244 417.332C664.875 417.527 664.583 417.798 664.367 418.145C664.155 418.489 664.049 418.881 664.049 419.321V425.5H662.549ZM677.49 415.736L673.879 425.5H672.354L668.743 415.736H670.371L673.066 423.517H673.167L675.863 415.736H677.49ZM683.214 425.703C682.273 425.703 681.462 425.496 680.779 425.08C680.101 424.661 679.578 424.076 679.209 423.326C678.845 422.572 678.663 421.695 678.663 420.694C678.663 419.694 678.845 418.813 679.209 418.05C679.578 417.283 680.091 416.686 680.748 416.258C681.409 415.825 682.18 415.609 683.061 415.609C683.57 415.609 684.072 415.694 684.568 415.863C685.064 416.033 685.515 416.308 685.922 416.69C686.329 417.067 686.653 417.567 686.894 418.19C687.136 418.813 687.257 419.58 687.257 420.491V421.127H679.731V419.83H685.731C685.731 419.279 685.621 418.787 685.401 418.355C685.185 417.923 684.875 417.582 684.473 417.332C684.074 417.082 683.604 416.957 683.061 416.957C682.464 416.957 681.947 417.105 681.51 417.402C681.078 417.694 680.746 418.076 680.512 418.546C680.279 419.016 680.163 419.521 680.163 420.059V420.923C680.163 421.661 680.29 422.286 680.544 422.798C680.803 423.307 681.161 423.695 681.618 423.962C682.076 424.224 682.608 424.356 683.214 424.356C683.608 424.356 683.964 424.301 684.282 424.191C684.604 424.076 684.882 423.907 685.115 423.682C685.348 423.453 685.528 423.169 685.655 422.83L687.104 423.237C686.952 423.729 686.695 424.161 686.335 424.534C685.975 424.902 685.53 425.191 685 425.398C684.47 425.602 683.875 425.703 683.214 425.703ZM696.455 417.923L695.107 418.304C695.022 418.08 694.897 417.862 694.732 417.65C694.571 417.434 694.351 417.256 694.071 417.116C693.791 416.976 693.433 416.906 692.997 416.906C692.399 416.906 691.901 417.044 691.503 417.319C691.109 417.59 690.912 417.936 690.912 418.355C690.912 418.728 691.047 419.023 691.319 419.239C691.59 419.455 692.014 419.635 692.59 419.779L694.039 420.135C694.912 420.347 695.563 420.671 695.991 421.108C696.419 421.54 696.633 422.097 696.633 422.779C696.633 423.339 696.472 423.839 696.15 424.28C695.832 424.72 695.387 425.068 694.815 425.322C694.243 425.576 693.577 425.703 692.819 425.703C691.823 425.703 690.999 425.487 690.346 425.055C689.693 424.623 689.28 423.991 689.106 423.161L690.53 422.805C690.666 423.33 690.922 423.724 691.299 423.987C691.681 424.25 692.179 424.381 692.793 424.381C693.492 424.381 694.048 424.233 694.459 423.936C694.874 423.635 695.082 423.275 695.082 422.856C695.082 422.517 694.963 422.233 694.726 422.004C694.488 421.771 694.124 421.597 693.632 421.483L692.005 421.101C691.111 420.889 690.454 420.561 690.035 420.116C689.619 419.667 689.412 419.105 689.412 418.432C689.412 417.881 689.566 417.393 689.876 416.97C690.189 416.546 690.615 416.213 691.153 415.972C691.696 415.73 692.31 415.609 692.997 415.609C693.963 415.609 694.721 415.821 695.272 416.245C695.827 416.669 696.222 417.228 696.455 417.923ZM706.798 425.729C706.18 425.729 705.618 425.612 705.114 425.379C704.61 425.142 704.209 424.801 703.912 424.356C703.616 423.907 703.467 423.364 703.467 422.729C703.467 422.169 703.578 421.716 703.798 421.368C704.018 421.017 704.313 420.741 704.682 420.542C705.05 420.343 705.457 420.194 705.902 420.097C706.351 419.995 706.803 419.915 707.256 419.855C707.849 419.779 708.33 419.722 708.699 419.684C709.072 419.641 709.343 419.571 709.513 419.474C709.686 419.377 709.773 419.207 709.773 418.965V418.915C709.773 418.287 709.602 417.8 709.258 417.453C708.919 417.105 708.404 416.931 707.714 416.931C706.997 416.931 706.436 417.088 706.029 417.402C705.622 417.715 705.336 418.05 705.171 418.406L703.747 417.898C704.001 417.304 704.34 416.842 704.764 416.512C705.192 416.177 705.658 415.944 706.163 415.813C706.671 415.677 707.171 415.609 707.663 415.609C707.976 415.609 708.337 415.647 708.743 415.724C709.154 415.796 709.551 415.946 709.932 416.175C710.318 416.404 710.638 416.749 710.892 417.211C711.146 417.673 711.273 418.292 711.273 419.067V425.5H709.773V424.178H709.697C709.595 424.39 709.426 424.616 709.188 424.858C708.951 425.1 708.635 425.305 708.241 425.475C707.847 425.644 707.366 425.729 706.798 425.729ZM707.027 424.381C707.62 424.381 708.12 424.265 708.527 424.032C708.938 423.799 709.248 423.498 709.455 423.129C709.667 422.76 709.773 422.373 709.773 421.966V420.593C709.71 420.669 709.57 420.739 709.354 420.803C709.142 420.862 708.896 420.915 708.616 420.961C708.341 421.004 708.072 421.042 707.809 421.076C707.55 421.106 707.341 421.131 707.18 421.152C706.79 421.203 706.425 421.286 706.086 421.4C705.752 421.51 705.48 421.678 705.273 421.902C705.069 422.123 704.968 422.423 704.968 422.805C704.968 423.326 705.16 423.72 705.546 423.987C705.936 424.25 706.43 424.381 707.027 424.381ZM719.046 429.161V415.736H720.495V417.287H720.673C720.783 417.118 720.936 416.902 721.131 416.639C721.33 416.372 721.614 416.135 721.982 415.927C722.355 415.715 722.86 415.609 723.495 415.609C724.317 415.609 725.042 415.815 725.669 416.226C726.296 416.637 726.786 417.22 727.138 417.974C727.489 418.728 727.665 419.618 727.665 420.644C727.665 421.678 727.489 422.574 727.138 423.332C726.786 424.087 726.299 424.672 725.676 425.087C725.053 425.498 724.334 425.703 723.521 425.703C722.894 425.703 722.391 425.6 722.014 425.392C721.637 425.18 721.347 424.941 721.143 424.674C720.94 424.402 720.783 424.178 720.673 424H720.546V429.161H719.046ZM720.52 420.618C720.52 421.356 720.629 422.006 720.845 422.57C721.061 423.129 721.376 423.568 721.792 423.885C722.207 424.199 722.716 424.356 723.317 424.356C723.945 424.356 724.468 424.191 724.887 423.86C725.311 423.525 725.629 423.076 725.841 422.512C726.057 421.945 726.165 421.313 726.165 420.618C726.165 419.932 726.059 419.313 725.847 418.762C725.64 418.207 725.324 417.768 724.9 417.446C724.481 417.12 723.953 416.957 723.317 416.957C722.707 416.957 722.194 417.111 721.779 417.421C721.364 417.726 721.05 418.154 720.838 418.705C720.626 419.252 720.52 419.889 720.52 420.618ZM731.454 412.482V425.5H729.954V412.482H731.454ZM737.074 425.729C736.456 425.729 735.894 425.612 735.39 425.379C734.886 425.142 734.485 424.801 734.189 424.356C733.892 423.907 733.744 423.364 733.744 422.729C733.744 422.169 733.854 421.716 734.074 421.368C734.295 421.017 734.589 420.741 734.958 420.542C735.326 420.343 735.733 420.194 736.178 420.097C736.627 419.995 737.079 419.915 737.532 419.855C738.125 419.779 738.606 419.722 738.975 419.684C739.348 419.641 739.619 419.571 739.789 419.474C739.962 419.377 740.049 419.207 740.049 418.965V418.915C740.049 418.287 739.878 417.8 739.534 417.453C739.195 417.105 738.681 416.931 737.99 416.931C737.274 416.931 736.712 417.088 736.305 417.402C735.899 417.715 735.612 418.05 735.447 418.406L734.023 417.898C734.278 417.304 734.617 416.842 735.04 416.512C735.468 416.177 735.935 415.944 736.439 415.813C736.947 415.677 737.447 415.609 737.939 415.609C738.253 415.609 738.613 415.647 739.02 415.724C739.431 415.796 739.827 415.946 740.208 416.175C740.594 416.404 740.914 416.749 741.168 417.211C741.422 417.673 741.549 418.292 741.549 419.067V425.5H740.049V424.178H739.973C739.871 424.39 739.702 424.616 739.465 424.858C739.227 425.1 738.912 425.305 738.517 425.475C738.123 425.644 737.642 425.729 737.074 425.729ZM737.303 424.381C737.897 424.381 738.397 424.265 738.803 424.032C739.215 423.799 739.524 423.498 739.732 423.129C739.943 422.76 740.049 422.373 740.049 421.966V420.593C739.986 420.669 739.846 420.739 739.63 420.803C739.418 420.862 739.172 420.915 738.892 420.961C738.617 421.004 738.348 421.042 738.085 421.076C737.827 421.106 737.617 421.131 737.456 421.152C737.066 421.203 736.702 421.286 736.363 421.4C736.028 421.51 735.757 421.678 735.549 421.902C735.345 422.123 735.244 422.423 735.244 422.805C735.244 423.326 735.437 423.72 735.822 423.987C736.212 424.25 736.706 424.381 737.303 424.381ZM745.788 419.627V425.5H744.288V415.736H745.737V417.262H745.864C746.093 416.766 746.44 416.368 746.906 416.067C747.373 415.762 747.974 415.609 748.712 415.609C749.373 415.609 749.951 415.745 750.447 416.016C750.943 416.283 751.328 416.69 751.604 417.237C751.879 417.779 752.017 418.465 752.017 419.296V425.5H750.517V419.398C750.517 418.631 750.318 418.033 749.919 417.605C749.521 417.173 748.974 416.957 748.279 416.957C747.801 416.957 747.373 417.061 746.995 417.268C746.623 417.476 746.328 417.779 746.112 418.177C745.896 418.576 745.788 419.059 745.788 419.627ZM771.285 419.22V420.618H753.385V419.22H771.285ZM775.532 425.729C774.913 425.729 774.351 425.612 773.847 425.379C773.343 425.142 772.942 424.801 772.646 424.356C772.349 423.907 772.201 423.364 772.201 422.729C772.201 422.169 772.311 421.716 772.531 421.368C772.752 421.017 773.046 420.741 773.415 420.542C773.783 420.343 774.19 420.194 774.635 420.097C775.084 419.995 775.536 419.915 775.989 419.855C776.582 419.779 777.063 419.722 777.432 419.684C777.805 419.641 778.076 419.571 778.246 419.474C778.419 419.377 778.506 419.207 778.506 418.965V418.915C778.506 418.287 778.335 417.8 777.991 417.453C777.652 417.105 777.138 416.931 776.447 416.931C775.731 416.931 775.169 417.088 774.762 417.402C774.356 417.715 774.07 418.05 773.904 418.406L772.48 417.898C772.735 417.304 773.074 416.842 773.497 416.512C773.925 416.177 774.392 415.944 774.896 415.813C775.404 415.677 775.904 415.609 776.396 415.609C776.71 415.609 777.07 415.647 777.477 415.724C777.888 415.796 778.284 415.946 778.665 416.175C779.051 416.404 779.371 416.749 779.625 417.211C779.879 417.673 780.007 418.292 780.007 419.067V425.5H778.506V424.178H778.43C778.328 424.39 778.159 424.616 777.922 424.858C777.684 425.1 777.369 425.305 776.974 425.475C776.58 425.644 776.099 425.729 775.532 425.729ZM775.76 424.381C776.354 424.381 776.854 424.265 777.26 424.032C777.672 423.799 777.981 423.498 778.189 423.129C778.4 422.76 778.506 422.373 778.506 421.966V420.593C778.443 420.669 778.303 420.739 778.087 420.803C777.875 420.862 777.629 420.915 777.349 420.961C777.074 421.004 776.805 421.042 776.542 421.076C776.284 421.106 776.074 421.131 775.913 421.152C775.523 421.203 775.159 421.286 774.82 421.4C774.485 421.51 774.214 421.678 774.006 421.902C773.803 422.123 773.701 422.423 773.701 422.805C773.701 423.326 773.894 423.72 774.279 423.987C774.669 424.25 775.163 424.381 775.76 424.381ZM784.245 419.627V425.5H782.745V415.736H784.194V417.262H784.321C784.55 416.766 784.897 416.368 785.363 416.067C785.83 415.762 786.431 415.609 787.169 415.609C787.83 415.609 788.408 415.745 788.904 416.016C789.4 416.283 789.786 416.69 790.061 417.237C790.336 417.779 790.474 418.465 790.474 419.296V425.5H788.974V419.398C788.974 418.631 788.775 418.033 788.376 417.605C787.978 417.173 787.431 416.957 786.736 416.957C786.258 416.957 785.83 417.061 785.452 417.268C785.08 417.476 784.785 417.779 784.569 418.177C784.353 418.576 784.245 419.059 784.245 419.627ZM796.902 425.703C796.089 425.703 795.37 425.498 794.747 425.087C794.124 424.672 793.637 424.087 793.285 423.332C792.934 422.574 792.758 421.678 792.758 420.644C792.758 419.618 792.934 418.728 793.285 417.974C793.637 417.22 794.126 416.637 794.754 416.226C795.381 415.815 796.105 415.609 796.928 415.609C797.563 415.609 798.065 415.715 798.434 415.927C798.807 416.135 799.091 416.372 799.286 416.639C799.485 416.902 799.64 417.118 799.75 417.287H799.877V412.482H801.377V425.5H799.928V424H799.75C799.64 424.178 799.483 424.402 799.28 424.674C799.076 424.941 798.786 425.18 798.409 425.392C798.032 425.6 797.529 425.703 796.902 425.703ZM797.106 424.356C797.707 424.356 798.216 424.199 798.631 423.885C799.046 423.568 799.362 423.129 799.578 422.57C799.794 422.006 799.902 421.356 799.902 420.618C799.902 419.889 799.797 419.252 799.585 418.705C799.373 418.154 799.059 417.726 798.644 417.421C798.229 417.111 797.716 416.957 797.106 416.957C796.47 416.957 795.94 417.12 795.516 417.446C795.097 417.768 794.781 418.207 794.569 418.762C794.362 419.313 794.258 419.932 794.258 420.618C794.258 421.313 794.364 421.945 794.576 422.512C794.792 423.076 795.11 423.525 795.529 423.86C795.953 424.191 796.478 424.356 797.106 424.356ZM809.367 425.5V415.736H810.867V425.5H809.367ZM810.13 414.109C809.838 414.109 809.586 414.01 809.374 413.81C809.166 413.611 809.062 413.372 809.062 413.092C809.062 412.812 809.166 412.573 809.374 412.374C809.586 412.175 809.838 412.075 810.13 412.075C810.423 412.075 810.673 412.175 810.88 412.374C811.092 412.573 811.198 412.812 811.198 413.092C811.198 413.372 811.092 413.611 810.88 413.81C810.673 414.01 810.423 414.109 810.13 414.109ZM817.861 415.736V417.008H812.801V415.736H817.861ZM814.276 413.397H815.776V422.703C815.776 423.127 815.838 423.445 815.961 423.657C816.088 423.864 816.249 424.004 816.444 424.076C816.643 424.144 816.853 424.178 817.073 424.178C817.238 424.178 817.374 424.169 817.48 424.152C817.586 424.131 817.671 424.114 817.734 424.102L818.039 425.449C817.938 425.487 817.796 425.525 817.613 425.564C817.431 425.606 817.2 425.627 816.921 425.627C816.497 425.627 816.081 425.536 815.675 425.354C815.272 425.172 814.937 424.894 814.67 424.521C814.408 424.148 814.276 423.678 814.276 423.11V413.397ZM832.068 417.923L830.721 418.304C830.636 418.08 830.511 417.862 830.345 417.65C830.184 417.434 829.964 417.256 829.684 417.116C829.405 416.976 829.047 416.906 828.61 416.906C828.013 416.906 827.515 417.044 827.116 417.319C826.722 417.59 826.525 417.936 826.525 418.355C826.525 418.728 826.661 419.023 826.932 419.239C827.203 419.455 827.627 419.635 828.203 419.779L829.653 420.135C830.526 420.347 831.176 420.671 831.604 421.108C832.032 421.54 832.246 422.097 832.246 422.779C832.246 423.339 832.085 423.839 831.763 424.28C831.445 424.72 831 425.068 830.428 425.322C829.856 425.576 829.191 425.703 828.432 425.703C827.436 425.703 826.612 425.487 825.959 425.055C825.307 424.623 824.894 423.991 824.72 423.161L826.144 422.805C826.279 423.33 826.536 423.724 826.913 423.987C827.294 424.25 827.792 424.381 828.407 424.381C829.106 424.381 829.661 424.233 830.072 423.936C830.487 423.635 830.695 423.275 830.695 422.856C830.695 422.517 830.576 422.233 830.339 422.004C830.102 421.771 829.737 421.597 829.246 421.483L827.619 421.101C826.724 420.889 826.068 420.561 825.648 420.116C825.233 419.667 825.025 419.105 825.025 418.432C825.025 417.881 825.18 417.393 825.489 416.97C825.803 416.546 826.229 416.213 826.767 415.972C827.309 415.73 827.924 415.609 828.61 415.609C829.576 415.609 830.335 415.821 830.886 416.245C831.441 416.669 831.835 417.228 832.068 417.923ZM838.75 415.736V417.008H833.691V415.736H838.75ZM835.165 413.397H836.665V422.703C836.665 423.127 836.727 423.445 836.85 423.657C836.977 423.864 837.138 424.004 837.333 424.076C837.532 424.144 837.742 424.178 837.962 424.178C838.127 424.178 838.263 424.169 838.369 424.152C838.475 424.131 838.56 424.114 838.623 424.102L838.928 425.449C838.827 425.487 838.685 425.525 838.502 425.564C838.32 425.606 838.089 425.627 837.81 425.627C837.386 425.627 836.971 425.536 836.564 425.354C836.161 425.172 835.826 424.894 835.559 424.521C835.297 424.148 835.165 423.678 835.165 423.11V413.397ZM843.88 425.729C843.261 425.729 842.7 425.612 842.196 425.379C841.691 425.142 841.291 424.801 840.994 424.356C840.698 423.907 840.549 423.364 840.549 422.729C840.549 422.169 840.659 421.716 840.88 421.368C841.1 421.017 841.395 420.741 841.763 420.542C842.132 420.343 842.539 420.194 842.984 420.097C843.433 419.995 843.884 419.915 844.338 419.855C844.931 419.779 845.412 419.722 845.781 419.684C846.154 419.641 846.425 419.571 846.594 419.474C846.768 419.377 846.855 419.207 846.855 418.965V418.915C846.855 418.287 846.683 417.8 846.34 417.453C846.001 417.105 845.486 416.931 844.795 416.931C844.079 416.931 843.518 417.088 843.111 417.402C842.704 417.715 842.418 418.05 842.253 418.406L840.829 417.898C841.083 417.304 841.422 416.842 841.846 416.512C842.274 416.177 842.74 415.944 843.244 415.813C843.753 415.677 844.253 415.609 844.745 415.609C845.058 415.609 845.418 415.647 845.825 415.724C846.236 415.796 846.633 415.946 847.014 416.175C847.4 416.404 847.719 416.749 847.974 417.211C848.228 417.673 848.355 418.292 848.355 419.067V425.5H846.855V424.178H846.779C846.677 424.39 846.508 424.616 846.27 424.858C846.033 425.1 845.717 425.305 845.323 425.475C844.929 425.644 844.448 425.729 843.88 425.729ZM844.109 424.381C844.702 424.381 845.202 424.265 845.609 424.032C846.02 423.799 846.33 423.498 846.537 423.129C846.749 422.76 846.855 422.373 846.855 421.966V420.593C846.791 420.669 846.652 420.739 846.435 420.803C846.224 420.862 845.978 420.915 845.698 420.961C845.423 421.004 845.154 421.042 844.891 421.076C844.632 421.106 844.423 421.131 844.262 421.152C843.872 421.203 843.507 421.286 843.168 421.4C842.833 421.51 842.562 421.678 842.355 421.902C842.151 422.123 842.049 422.423 842.049 422.805C842.049 423.326 842.242 423.72 842.628 423.987C843.018 424.25 843.511 424.381 844.109 424.381ZM851.093 425.5V415.736H852.543V417.211H852.644C852.822 416.728 853.144 416.336 853.61 416.035C854.077 415.734 854.602 415.584 855.187 415.584C855.297 415.584 855.435 415.586 855.6 415.59C855.765 415.594 855.89 415.601 855.975 415.609V417.135C855.924 417.122 855.808 417.103 855.625 417.078C855.447 417.048 855.259 417.033 855.06 417.033C854.585 417.033 854.161 417.133 853.788 417.332C853.42 417.527 853.127 417.798 852.911 418.145C852.699 418.489 852.593 418.881 852.593 419.321V425.5H851.093ZM862.611 415.736V417.008H857.551V415.736H862.611ZM859.026 413.397H860.526V422.703C860.526 423.127 860.588 423.445 860.711 423.657C860.838 423.864 860.999 424.004 861.194 424.076C861.393 424.144 861.603 424.178 861.823 424.178C861.988 424.178 862.124 424.169 862.23 424.152C862.336 424.131 862.421 424.114 862.484 424.102L862.789 425.449C862.688 425.487 862.546 425.525 862.363 425.564C862.181 425.606 861.95 425.627 861.67 425.627C861.247 425.627 860.831 425.536 860.425 425.354C860.022 425.172 859.687 424.894 859.42 424.521C859.158 424.148 859.026 423.678 859.026 423.11V413.397ZM871.609 417.923L870.261 418.304C870.177 418.08 870.052 417.862 869.886 417.65C869.725 417.434 869.505 417.256 869.225 417.116C868.946 416.976 868.587 416.906 868.151 416.906C867.553 416.906 867.056 417.044 866.657 417.319C866.263 417.59 866.066 417.936 866.066 418.355C866.066 418.728 866.202 419.023 866.473 419.239C866.744 419.455 867.168 419.635 867.744 419.779L869.193 420.135C870.066 420.347 870.717 420.671 871.145 421.108C871.573 421.54 871.787 422.097 871.787 422.779C871.787 423.339 871.626 423.839 871.304 424.28C870.986 424.72 870.541 425.068 869.969 425.322C869.397 425.576 868.732 425.703 867.973 425.703C866.977 425.703 866.153 425.487 865.5 425.055C864.848 424.623 864.435 423.991 864.261 423.161L865.685 422.805C865.82 423.33 866.077 423.724 866.454 423.987C866.835 424.25 867.333 424.381 867.948 424.381C868.647 424.381 869.202 424.233 869.613 423.936C870.028 423.635 870.236 423.275 870.236 422.856C870.236 422.517 870.117 422.233 869.88 422.004C869.643 421.771 869.278 421.597 868.787 421.483L867.159 421.101C866.265 420.889 865.608 420.561 865.189 420.116C864.774 419.667 864.566 419.105 864.566 418.432C864.566 417.881 864.721 417.393 865.03 416.97C865.344 416.546 865.769 416.213 866.308 415.972C866.85 415.73 867.464 415.609 868.151 415.609C869.117 415.609 869.876 415.821 870.427 416.245C870.982 416.669 871.376 417.228 871.609 417.923ZM880.58 419.627V425.5H879.079V412.482H880.58V417.262H880.707C880.936 416.758 881.279 416.357 881.736 416.061C882.198 415.76 882.813 415.609 883.58 415.609C884.245 415.609 884.828 415.743 885.328 416.01C885.828 416.272 886.216 416.677 886.491 417.224C886.771 417.766 886.911 418.457 886.911 419.296V425.5H885.411V419.398C885.411 418.622 885.209 418.023 884.807 417.599C884.408 417.171 883.855 416.957 883.148 416.957C882.656 416.957 882.215 417.061 881.825 417.268C881.44 417.476 881.135 417.779 880.91 418.177C880.69 418.576 880.58 419.059 880.58 419.627ZM893.749 425.703C892.808 425.703 891.996 425.496 891.314 425.08C890.636 424.661 890.113 424.076 889.744 423.326C889.38 422.572 889.197 421.695 889.197 420.694C889.197 419.694 889.38 418.813 889.744 418.05C890.113 417.283 890.626 416.686 891.282 416.258C891.943 415.825 892.715 415.609 893.596 415.609C894.105 415.609 894.607 415.694 895.103 415.863C895.598 416.033 896.05 416.308 896.457 416.69C896.863 417.067 897.188 417.567 897.429 418.19C897.671 418.813 897.791 419.58 897.791 420.491V421.127H890.265V419.83H896.266C896.266 419.279 896.156 418.787 895.935 418.355C895.719 417.923 895.41 417.582 895.007 417.332C894.609 417.082 894.139 416.957 893.596 416.957C892.999 416.957 892.482 417.105 892.045 417.402C891.613 417.694 891.28 418.076 891.047 418.546C890.814 419.016 890.698 419.521 890.698 420.059V420.923C890.698 421.661 890.825 422.286 891.079 422.798C891.337 423.307 891.696 423.695 892.153 423.962C892.611 424.224 893.143 424.356 893.749 424.356C894.143 424.356 894.499 424.301 894.817 424.191C895.139 424.076 895.416 423.907 895.649 423.682C895.882 423.453 896.063 423.169 896.19 422.83L897.639 423.237C897.486 423.729 897.23 424.161 896.87 424.534C896.51 424.902 896.065 425.191 895.535 425.398C895.005 425.602 894.41 425.703 893.749 425.703ZM900.073 425.5V415.736H901.523V417.211H901.624C901.802 416.728 902.125 416.336 902.591 416.035C903.057 415.734 903.582 415.584 904.167 415.584C904.277 415.584 904.415 415.586 904.58 415.59C904.746 415.594 904.871 415.601 904.955 415.609V417.135C904.904 417.122 904.788 417.103 904.606 417.078C904.428 417.048 904.239 417.033 904.04 417.033C903.565 417.033 903.142 417.133 902.769 417.332C902.4 417.527 902.108 417.798 901.891 418.145C901.68 418.489 901.574 418.881 901.574 419.321V425.5H900.073ZM910.53 425.703C909.589 425.703 908.778 425.496 908.095 425.08C907.417 424.661 906.894 424.076 906.525 423.326C906.161 422.572 905.979 421.695 905.979 420.694C905.979 419.694 906.161 418.813 906.525 418.05C906.894 417.283 907.407 416.686 908.064 416.258C908.725 415.825 909.496 415.609 910.377 415.609C910.886 415.609 911.388 415.694 911.884 415.863C912.38 416.033 912.831 416.308 913.238 416.69C913.645 417.067 913.969 417.567 914.21 418.19C914.452 418.813 914.573 419.58 914.573 420.491V421.127H907.047V419.83H913.047C913.047 419.279 912.937 418.787 912.717 418.355C912.5 417.923 912.191 417.582 911.789 417.332C911.39 417.082 910.92 416.957 910.377 416.957C909.78 416.957 909.263 417.105 908.826 417.402C908.394 417.694 908.062 418.076 907.828 418.546C907.595 419.016 907.479 419.521 907.479 420.059V420.923C907.479 421.661 907.606 422.286 907.86 422.798C908.119 423.307 908.477 423.695 908.934 423.962C909.392 424.224 909.924 424.356 910.53 424.356C910.924 424.356 911.28 424.301 911.598 424.191C911.92 424.076 912.198 423.907 912.431 423.682C912.664 423.453 912.844 423.169 912.971 422.83L914.42 423.237C914.268 423.729 914.011 424.161 913.651 424.534C913.291 424.902 912.846 425.191 912.316 425.398C911.786 425.602 911.191 425.703 910.53 425.703ZM918.838 412.482L918.711 421.839H917.236L917.109 412.482H918.838ZM917.973 425.602C917.66 425.602 917.391 425.489 917.166 425.265C916.942 425.04 916.829 424.771 916.829 424.458C916.829 424.144 916.942 423.875 917.166 423.65C917.391 423.426 917.66 423.313 917.973 423.313C918.287 423.313 918.556 423.426 918.781 423.65C919.005 423.875 919.118 424.144 919.118 424.458C919.118 424.665 919.065 424.856 918.959 425.03C918.857 425.203 918.719 425.343 918.546 425.449C918.376 425.551 918.185 425.602 917.973 425.602Z" fill="#A1A1AA" fill-opacity="0.8"/>
<path d="M376.133 356.344V352.3H395.187V356.344H388.084V375.5H383.236V356.344H376.133ZM400.028 375.829C398.918 375.829 397.929 375.636 397.06 375.251C396.192 374.858 395.504 374.28 394.998 373.518C394.5 372.747 394.251 371.788 394.251 370.64C394.251 369.674 394.428 368.862 394.783 368.205C395.138 367.548 395.621 367.019 396.233 366.619C396.845 366.218 397.54 365.916 398.318 365.712C399.103 365.509 399.926 365.365 400.787 365.282C401.799 365.176 402.615 365.078 403.234 364.987C403.853 364.889 404.303 364.746 404.582 364.557C404.861 364.368 405.001 364.089 405.001 363.719V363.651C405.001 362.933 404.775 362.378 404.321 361.986C403.876 361.593 403.242 361.396 402.418 361.396C401.55 361.396 400.859 361.589 400.345 361.974C399.832 362.352 399.492 362.828 399.326 363.402L394.863 363.039C395.089 361.982 395.535 361.068 396.199 360.298C396.864 359.52 397.721 358.923 398.771 358.508C399.828 358.085 401.051 357.873 402.441 357.873C403.408 357.873 404.333 357.987 405.216 358.213C406.108 358.44 406.897 358.791 407.584 359.267C408.279 359.743 408.826 360.354 409.227 361.102C409.627 361.842 409.827 362.729 409.827 363.764V375.5H405.25V373.087H405.114C404.835 373.631 404.461 374.11 403.993 374.526C403.525 374.934 402.962 375.255 402.305 375.489C401.648 375.715 400.889 375.829 400.028 375.829ZM401.41 372.498C402.12 372.498 402.747 372.358 403.291 372.079C403.834 371.792 404.261 371.407 404.571 370.923C404.88 370.44 405.035 369.893 405.035 369.281V367.434C404.884 367.533 404.676 367.623 404.412 367.706C404.155 367.782 403.865 367.854 403.54 367.921C403.215 367.982 402.89 368.039 402.566 368.091C402.241 368.137 401.946 368.178 401.682 368.216C401.116 368.299 400.621 368.431 400.198 368.612C399.775 368.794 399.447 369.039 399.213 369.349C398.978 369.651 398.861 370.029 398.861 370.482C398.861 371.139 399.099 371.641 399.575 371.988C400.058 372.328 400.67 372.498 401.41 372.498ZM417.144 370.493L417.155 364.704H417.857L423.431 358.1H428.97L421.482 366.845H420.338L417.144 370.493ZM412.771 375.5V352.3H417.597V375.5H412.771ZM423.646 375.5L418.526 367.921L421.743 364.512L429.299 375.5H423.646ZM437.751 375.84C435.961 375.84 434.42 375.477 433.129 374.752C431.845 374.02 430.856 372.985 430.161 371.648C429.466 370.304 429.119 368.714 429.119 366.879C429.119 365.089 429.466 363.519 430.161 362.167C430.856 360.815 431.834 359.761 433.095 359.006C434.364 358.251 435.852 357.873 437.558 357.873C438.706 357.873 439.775 358.058 440.764 358.429C441.761 358.791 442.63 359.339 443.37 360.071C444.117 360.804 444.699 361.725 445.114 362.835C445.53 363.938 445.737 365.229 445.737 366.709V368.035H431.045V365.044H441.195C441.195 364.349 441.044 363.734 440.742 363.198C440.439 362.661 440.02 362.242 439.484 361.94C438.955 361.631 438.34 361.476 437.638 361.476C436.905 361.476 436.256 361.646 435.689 361.986C435.13 362.318 434.692 362.767 434.375 363.334C434.058 363.892 433.896 364.515 433.888 365.203V368.046C433.888 368.907 434.047 369.651 434.364 370.278C434.689 370.905 435.145 371.388 435.734 371.728C436.324 372.068 437.022 372.237 437.83 372.237C438.366 372.237 438.857 372.162 439.303 372.011C439.748 371.86 440.13 371.633 440.447 371.331C440.764 371.029 441.006 370.659 441.172 370.221L445.635 370.516C445.409 371.588 444.944 372.524 444.242 373.325C443.547 374.118 442.648 374.737 441.546 375.183C440.451 375.621 439.186 375.84 437.751 375.84ZM463.925 358.1V361.725H453.446V358.1H463.925ZM455.825 353.931H460.651V370.153C460.651 370.599 460.719 370.946 460.855 371.195C460.991 371.437 461.179 371.607 461.421 371.705C461.67 371.803 461.957 371.852 462.282 371.852C462.509 371.852 462.735 371.833 462.962 371.796C463.188 371.75 463.362 371.716 463.483 371.694L464.242 375.285C464 375.36 463.66 375.447 463.222 375.545C462.784 375.651 462.252 375.715 461.625 375.738C460.462 375.783 459.442 375.628 458.566 375.273C457.698 374.918 457.022 374.367 456.539 373.62C456.055 372.872 455.817 371.928 455.825 370.787V353.931ZM471.468 365.441V375.5H466.642V352.3H471.332V361.17H471.536C471.928 360.143 472.563 359.339 473.439 358.757C474.315 358.168 475.414 357.873 476.735 357.873C477.944 357.873 478.997 358.138 479.896 358.666C480.802 359.187 481.504 359.939 482.003 360.921C482.509 361.895 482.758 363.062 482.751 364.421V375.5H477.925V365.282C477.932 364.21 477.66 363.375 477.109 362.779C476.565 362.182 475.803 361.884 474.821 361.884C474.164 361.884 473.582 362.023 473.076 362.303C472.578 362.582 472.185 362.99 471.898 363.526C471.619 364.055 471.475 364.693 471.468 365.441ZM493.678 375.84C491.888 375.84 490.348 375.477 489.056 374.752C487.772 374.02 486.783 372.985 486.088 371.648C485.393 370.304 485.046 368.714 485.046 366.879C485.046 365.089 485.393 363.519 486.088 362.167C486.783 360.815 487.761 359.761 489.022 359.006C490.291 358.251 491.779 357.873 493.485 357.873C494.633 357.873 495.702 358.058 496.691 358.429C497.688 358.791 498.557 359.339 499.297 360.071C500.044 360.804 500.626 361.725 501.041 362.835C501.457 363.938 501.664 365.229 501.664 366.709V368.035H486.972V365.044H497.122C497.122 364.349 496.971 363.734 496.669 363.198C496.367 362.661 495.947 362.242 495.411 361.94C494.883 361.631 494.267 361.476 493.565 361.476C492.832 361.476 492.183 361.646 491.616 361.986C491.057 362.318 490.619 362.767 490.302 363.334C489.985 363.892 489.823 364.515 489.815 365.203V368.046C489.815 368.907 489.974 369.651 490.291 370.278C490.616 370.905 491.073 371.388 491.662 371.728C492.251 372.068 492.949 372.237 493.757 372.237C494.294 372.237 494.784 372.162 495.23 372.011C495.676 371.86 496.057 371.633 496.374 371.331C496.691 371.029 496.933 370.659 497.099 370.221L501.562 370.516C501.336 371.588 500.871 372.524 500.169 373.325C499.474 374.118 498.576 374.737 497.473 375.183C496.378 375.621 495.113 375.84 493.678 375.84ZM510.687 375.5V352.3H526.048V356.344H515.592V361.872H525.029V365.916H515.592V375.5H510.687ZM528.457 375.5V358.1H533.283V375.5H528.457ZM530.881 355.857C530.164 355.857 529.548 355.619 529.035 355.143C528.529 354.66 528.276 354.082 528.276 353.41C528.276 352.746 528.529 352.175 529.035 351.7C529.548 351.216 530.164 350.975 530.881 350.975C531.599 350.975 532.21 351.216 532.716 351.7C533.23 352.175 533.487 352.746 533.487 353.41C533.487 354.082 533.23 354.66 532.716 355.143C532.21 355.619 531.599 355.857 530.881 355.857ZM536.348 375.5V358.1H541.027V361.136H541.208C541.525 360.056 542.058 359.24 542.805 358.689C543.553 358.13 544.414 357.851 545.388 357.851C545.63 357.851 545.89 357.866 546.17 357.896C546.449 357.926 546.695 357.968 546.906 358.021V362.303C546.68 362.235 546.366 362.174 545.966 362.121C545.566 362.069 545.199 362.042 544.867 362.042C544.157 362.042 543.523 362.197 542.964 362.507C542.413 362.809 541.975 363.232 541.65 363.775C541.333 364.319 541.174 364.946 541.174 365.656V375.5H536.348ZM563.079 363.062L558.661 363.334C558.585 362.956 558.423 362.616 558.174 362.314C557.924 362.004 557.596 361.759 557.188 361.578C556.788 361.389 556.308 361.295 555.749 361.295C555.002 361.295 554.371 361.453 553.858 361.77C553.344 362.08 553.087 362.495 553.087 363.016C553.087 363.432 553.253 363.783 553.586 364.07C553.918 364.357 554.488 364.587 555.296 364.761L558.445 365.395C560.137 365.743 561.398 366.302 562.229 367.072C563.06 367.842 563.475 368.854 563.475 370.108C563.475 371.248 563.139 372.249 562.467 373.11C561.802 373.971 560.888 374.643 559.725 375.126C558.57 375.602 557.237 375.84 555.727 375.84C553.423 375.84 551.588 375.36 550.221 374.401C548.862 373.435 548.065 372.12 547.831 370.459L552.577 370.21C552.721 370.912 553.068 371.448 553.62 371.818C554.171 372.181 554.877 372.362 555.738 372.362C556.584 372.362 557.263 372.2 557.777 371.875C558.298 371.543 558.562 371.116 558.57 370.595C558.562 370.157 558.377 369.798 558.015 369.519C557.652 369.232 557.094 369.013 556.338 368.862L553.325 368.261C551.626 367.921 550.361 367.332 549.53 366.494C548.707 365.656 548.295 364.587 548.295 363.288C548.295 362.171 548.597 361.208 549.202 360.4C549.813 359.592 550.671 358.968 551.773 358.53C552.883 358.092 554.182 357.873 555.67 357.873C557.868 357.873 559.597 358.338 560.858 359.267C562.127 360.196 562.867 361.461 563.079 363.062ZM574.969 358.1V361.725H564.49V358.1H574.969ZM566.869 353.931H571.695V370.153C571.695 370.599 571.763 370.946 571.899 371.195C572.035 371.437 572.224 371.607 572.465 371.705C572.715 371.803 573.002 371.852 573.326 371.852C573.553 371.852 573.779 371.833 574.006 371.796C574.233 371.75 574.406 371.716 574.527 371.694L575.286 375.285C575.044 375.36 574.705 375.447 574.267 375.545C573.829 375.651 573.296 375.715 572.669 375.738C571.506 375.783 570.487 375.628 569.611 375.273C568.742 374.918 568.066 374.367 567.583 373.62C567.1 372.872 566.862 371.928 566.869 370.787V353.931ZM596.572 358.972C596.481 358.058 596.092 357.349 595.405 356.843C594.718 356.337 593.785 356.084 592.607 356.084C591.806 356.084 591.13 356.197 590.579 356.423C590.028 356.642 589.605 356.948 589.31 357.341C589.023 357.734 588.88 358.179 588.88 358.678C588.865 359.093 588.952 359.456 589.141 359.765C589.337 360.075 589.605 360.343 589.945 360.57C590.285 360.789 590.677 360.981 591.123 361.147C591.569 361.306 592.044 361.442 592.55 361.555L594.635 362.054C595.647 362.28 596.576 362.582 597.421 362.96C598.267 363.337 599 363.802 599.619 364.353C600.238 364.904 600.718 365.554 601.058 366.302C601.405 367.049 601.583 367.906 601.59 368.873C601.583 370.293 601.22 371.524 600.503 372.566C599.793 373.601 598.766 374.405 597.421 374.979C596.085 375.545 594.472 375.829 592.584 375.829C590.711 375.829 589.08 375.542 587.691 374.968C586.308 374.394 585.229 373.544 584.451 372.419C583.68 371.286 583.276 369.885 583.239 368.216H587.985C588.038 368.994 588.261 369.643 588.653 370.164C589.054 370.678 589.586 371.067 590.251 371.331C590.923 371.588 591.682 371.716 592.528 371.716C593.358 371.716 594.08 371.596 594.691 371.354C595.311 371.112 595.79 370.776 596.13 370.346C596.47 369.915 596.64 369.421 596.64 368.862C596.64 368.341 596.485 367.903 596.175 367.548C595.873 367.193 595.428 366.891 594.839 366.641C594.257 366.392 593.543 366.166 592.698 365.962L590.171 365.327C588.215 364.852 586.671 364.108 585.538 363.096C584.405 362.084 583.843 360.721 583.85 359.006C583.843 357.602 584.217 356.374 584.972 355.325C585.735 354.275 586.78 353.455 588.11 352.866C589.439 352.277 590.949 351.983 592.641 351.983C594.363 351.983 595.866 352.277 597.15 352.866C598.441 353.455 599.445 354.275 600.163 355.325C600.88 356.374 601.25 357.59 601.273 358.972H596.572ZM613.254 358.1V361.725H602.775V358.1H613.254ZM605.154 353.931H609.98V370.153C609.98 370.599 610.048 370.946 610.184 371.195C610.32 371.437 610.509 371.607 610.75 371.705C611 371.803 611.287 371.852 611.611 371.852C611.838 371.852 612.064 371.833 612.291 371.796C612.518 371.75 612.691 371.716 612.812 371.694L613.571 375.285C613.329 375.36 612.99 375.447 612.552 375.545C612.114 375.651 611.581 375.715 610.954 375.738C609.791 375.783 608.772 375.628 607.896 375.273C607.027 374.918 606.351 374.367 605.868 373.62C605.385 372.872 605.147 371.928 605.154 370.787V353.931ZM623.34 375.84C621.55 375.84 620.01 375.477 618.718 374.752C617.434 374.02 616.445 372.985 615.75 371.648C615.056 370.304 614.708 368.714 614.708 366.879C614.708 365.089 615.056 363.519 615.75 362.167C616.445 360.815 617.423 359.761 618.684 359.006C619.953 358.251 621.441 357.873 623.148 357.873C624.296 357.873 625.364 358.058 626.354 358.429C627.35 358.791 628.219 359.339 628.959 360.071C629.707 360.804 630.288 361.725 630.704 362.835C631.119 363.938 631.327 365.229 631.327 366.709V368.035H616.634V365.044H626.784C626.784 364.349 626.633 363.734 626.331 363.198C626.029 362.661 625.61 362.242 625.073 361.94C624.545 361.631 623.929 361.476 623.227 361.476C622.494 361.476 621.845 361.646 621.279 361.986C620.72 362.318 620.282 362.767 619.964 363.334C619.647 363.892 619.485 364.515 619.477 365.203V368.046C619.477 368.907 619.636 369.651 619.953 370.278C620.278 370.905 620.735 371.388 621.324 371.728C621.913 372.068 622.611 372.237 623.42 372.237C623.956 372.237 624.447 372.162 624.892 372.011C625.338 371.86 625.719 371.633 626.036 371.331C626.354 371.029 626.595 370.659 626.761 370.221L631.225 370.516C630.998 371.588 630.534 372.524 629.831 373.325C629.136 374.118 628.238 374.737 627.135 375.183C626.04 375.621 624.775 375.84 623.34 375.84ZM633.676 382.025V358.1H638.434V361.023H638.649C638.86 360.554 639.166 360.079 639.566 359.595C639.974 359.104 640.503 358.697 641.152 358.372C641.809 358.04 642.625 357.873 643.599 357.873C644.868 357.873 646.039 358.206 647.111 358.87C648.183 359.527 649.04 360.52 649.682 361.85C650.324 363.171 650.645 364.829 650.645 366.823C650.645 368.764 650.332 370.402 649.705 371.739C649.086 373.068 648.24 374.076 647.168 374.764C646.103 375.443 644.91 375.783 643.588 375.783C642.651 375.783 641.855 375.628 641.198 375.319C640.548 375.009 640.016 374.62 639.6 374.152C639.185 373.676 638.868 373.197 638.649 372.713H638.502V382.025H633.676ZM638.4 366.8C638.4 367.835 638.543 368.737 638.83 369.507C639.117 370.278 639.532 370.878 640.076 371.309C640.62 371.732 641.281 371.943 642.059 371.943C642.844 371.943 643.509 371.728 644.052 371.297C644.596 370.859 645.008 370.255 645.287 369.485C645.574 368.707 645.718 367.812 645.718 366.8C645.718 365.796 645.578 364.912 645.298 364.149C645.019 363.386 644.607 362.79 644.064 362.359C643.52 361.929 642.852 361.714 642.059 361.714C641.273 361.714 640.609 361.921 640.065 362.337C639.529 362.752 639.117 363.341 638.83 364.104C638.543 364.867 638.4 365.765 638.4 366.8ZM658.853 356.344V352.3H677.907V356.344H670.804V375.5H665.955V356.344H658.853ZM685.492 375.84C683.733 375.84 682.211 375.466 680.927 374.718C679.651 373.963 678.665 372.913 677.97 371.569C677.276 370.217 676.928 368.65 676.928 366.868C676.928 365.071 677.276 363.5 677.97 362.155C678.665 360.804 679.651 359.754 680.927 359.006C682.211 358.251 683.733 357.873 685.492 357.873C687.252 357.873 688.77 358.251 690.046 359.006C691.33 359.754 692.319 360.804 693.014 362.155C693.709 363.5 694.056 365.071 694.056 366.868C694.056 368.65 693.709 370.217 693.014 371.569C692.319 372.913 691.33 373.963 690.046 374.718C688.77 375.466 687.252 375.84 685.492 375.84ZM685.515 372.102C686.315 372.102 686.984 371.875 687.52 371.422C688.056 370.961 688.46 370.334 688.732 369.541C689.011 368.748 689.151 367.846 689.151 366.834C689.151 365.822 689.011 364.92 688.732 364.127C688.46 363.334 688.056 362.707 687.52 362.246C686.984 361.785 686.315 361.555 685.515 361.555C684.707 361.555 684.027 361.785 683.476 362.246C682.932 362.707 682.52 363.334 682.241 364.127C681.969 364.92 681.833 365.822 681.833 366.834C681.833 367.846 681.969 368.748 682.241 369.541C682.52 370.334 682.932 370.961 683.476 371.422C684.027 371.875 684.707 372.102 685.515 372.102ZM699.39 375.5L694.655 358.1H699.538L702.234 369.791H702.392L705.202 358.1H709.994L712.848 369.723H712.996L715.646 358.1H720.517L715.794 375.5H710.685L707.694 364.557H707.479L704.488 375.5H699.39ZM727.253 375.829C726.143 375.829 725.154 375.636 724.285 375.251C723.417 374.858 722.73 374.28 722.224 373.518C721.725 372.747 721.476 371.788 721.476 370.64C721.476 369.674 721.654 368.862 722.008 368.205C722.363 367.548 722.847 367.019 723.458 366.619C724.07 366.218 724.765 365.916 725.543 365.712C726.328 365.509 727.151 365.365 728.012 365.282C729.024 365.176 729.84 365.078 730.459 364.987C731.079 364.889 731.528 364.746 731.807 364.557C732.087 364.368 732.226 364.089 732.226 363.719V363.651C732.226 362.933 732 362.378 731.547 361.986C731.101 361.593 730.467 361.396 729.644 361.396C728.775 361.396 728.084 361.589 727.571 361.974C727.057 362.352 726.717 362.828 726.551 363.402L722.088 363.039C722.314 361.982 722.76 361.068 723.424 360.298C724.089 359.52 724.946 358.923 725.996 358.508C727.053 358.085 728.277 357.873 729.666 357.873C730.633 357.873 731.558 357.987 732.442 358.213C733.333 358.44 734.122 358.791 734.809 359.267C735.504 359.743 736.052 360.354 736.452 361.102C736.852 361.842 737.052 362.729 737.052 363.764V375.5H732.476V373.087H732.34C732.06 373.631 731.686 374.11 731.218 374.526C730.75 374.934 730.187 375.255 729.53 375.489C728.873 375.715 728.114 375.829 727.253 375.829ZM728.635 372.498C729.345 372.498 729.972 372.358 730.516 372.079C731.06 371.792 731.486 371.407 731.796 370.923C732.106 370.44 732.26 369.893 732.26 369.281V367.434C732.109 367.533 731.902 367.623 731.637 367.706C731.381 367.782 731.09 367.854 730.765 367.921C730.44 367.982 730.116 368.039 729.791 368.091C729.466 368.137 729.172 368.178 728.907 368.216C728.341 368.299 727.846 368.431 727.423 368.612C727 368.794 726.672 369.039 726.438 369.349C726.204 369.651 726.087 370.029 726.087 370.482C726.087 371.139 726.324 371.641 726.8 371.988C727.284 372.328 727.895 372.498 728.635 372.498ZM739.996 375.5V358.1H744.675V361.136H744.856C745.173 360.056 745.706 359.24 746.453 358.689C747.201 358.13 748.062 357.851 749.036 357.851C749.278 357.851 749.538 357.866 749.818 357.896C750.097 357.926 750.343 357.968 750.554 358.021V362.303C750.327 362.235 750.014 362.174 749.614 362.121C749.214 362.069 748.847 362.042 748.515 362.042C747.805 362.042 747.171 362.197 746.612 362.507C746.061 362.809 745.622 363.232 745.298 363.775C744.981 364.319 744.822 364.946 744.822 365.656V375.5H739.996ZM757.851 375.783C756.529 375.783 755.332 375.443 754.26 374.764C753.195 374.076 752.349 373.068 751.722 371.739C751.103 370.402 750.793 368.764 750.793 366.823C750.793 364.829 751.114 363.171 751.756 361.85C752.398 360.52 753.252 359.527 754.316 358.87C755.389 358.206 756.563 357.873 757.839 357.873C758.814 357.873 759.626 358.04 760.275 358.372C760.932 358.697 761.461 359.104 761.861 359.595C762.269 360.079 762.578 360.554 762.79 361.023H762.937V352.3H767.752V375.5H762.994V372.713H762.79C762.563 373.197 762.242 373.676 761.827 374.152C761.419 374.62 760.887 375.009 760.23 375.319C759.58 375.628 758.787 375.783 757.851 375.783ZM759.38 371.943C760.158 371.943 760.815 371.732 761.351 371.309C761.895 370.878 762.31 370.278 762.597 369.507C762.892 368.737 763.039 367.835 763.039 366.8C763.039 365.765 762.896 364.867 762.609 364.104C762.322 363.341 761.906 362.752 761.362 362.337C760.819 361.921 760.158 361.714 759.38 361.714C758.587 361.714 757.919 361.929 757.375 362.359C756.831 362.79 756.42 363.386 756.14 364.149C755.861 364.912 755.721 365.796 755.721 366.8C755.721 367.812 755.861 368.707 756.14 369.485C756.427 370.255 756.839 370.859 757.375 371.297C757.919 371.728 758.587 371.943 759.38 371.943ZM785.397 363.062L780.979 363.334C780.903 362.956 780.741 362.616 780.491 362.314C780.242 362.004 779.914 361.759 779.506 361.578C779.106 361.389 778.626 361.295 778.067 361.295C777.32 361.295 776.689 361.453 776.175 361.77C775.662 362.08 775.405 362.495 775.405 363.016C775.405 363.432 775.571 363.783 775.904 364.07C776.236 364.357 776.806 364.587 777.614 364.761L780.763 365.395C782.455 365.743 783.716 366.302 784.547 367.072C785.378 367.842 785.793 368.854 785.793 370.108C785.793 371.248 785.457 372.249 784.785 373.11C784.12 373.971 783.206 374.643 782.043 375.126C780.888 375.602 779.555 375.84 778.045 375.84C775.741 375.84 773.906 375.36 772.539 374.401C771.18 373.435 770.383 372.12 770.149 370.459L774.895 370.21C775.039 370.912 775.386 371.448 775.938 371.818C776.489 372.181 777.195 372.362 778.056 372.362C778.902 372.362 779.581 372.2 780.095 371.875C780.616 371.543 780.88 371.116 780.888 370.595C780.88 370.157 780.695 369.798 780.333 369.519C779.97 369.232 779.412 369.013 778.656 368.862L775.643 368.261C773.944 367.921 772.679 367.332 771.848 366.494C771.025 365.656 770.613 364.587 770.613 363.288C770.613 362.171 770.915 361.208 771.52 360.4C772.131 359.592 772.988 358.968 774.091 358.53C775.201 358.092 776.5 357.873 777.988 357.873C780.186 357.873 781.915 358.338 783.176 359.267C784.445 360.196 785.185 361.461 785.397 363.062ZM794.706 375.5V352.3H810.066V356.344H799.611V361.872H809.047V365.916H799.611V375.5H794.706ZM812.475 375.5V358.1H817.301V375.5H812.475ZM814.899 355.857C814.182 355.857 813.566 355.619 813.053 355.143C812.547 354.66 812.294 354.082 812.294 353.41C812.294 352.746 812.547 352.175 813.053 351.7C813.566 351.216 814.182 350.975 814.899 350.975C815.617 350.975 816.229 351.216 816.735 351.7C817.248 352.175 817.505 352.746 817.505 353.41C817.505 354.082 817.248 354.66 816.735 355.143C816.229 355.619 815.617 355.857 814.899 355.857ZM825.192 365.441V375.5H820.367V358.1H824.966V361.17H825.17C825.555 360.158 826.201 359.357 827.107 358.768C828.013 358.172 829.112 357.873 830.403 357.873C831.612 357.873 832.665 358.138 833.564 358.666C834.463 359.195 835.161 359.95 835.66 360.932C836.158 361.906 836.407 363.069 836.407 364.421V375.5H831.582V365.282C831.589 364.217 831.317 363.386 830.766 362.79C830.215 362.186 829.456 361.884 828.489 361.884C827.839 361.884 827.266 362.023 826.767 362.303C826.276 362.582 825.891 362.99 825.612 363.526C825.34 364.055 825.2 364.693 825.192 365.441ZM844.372 375.829C843.262 375.829 842.273 375.636 841.404 375.251C840.536 374.858 839.849 374.28 839.343 373.518C838.844 372.747 838.595 371.788 838.595 370.64C838.595 369.674 838.773 368.862 839.128 368.205C839.482 367.548 839.966 367.019 840.578 366.619C841.189 366.218 841.884 365.916 842.662 365.712C843.447 365.509 844.271 365.365 845.131 365.282C846.143 365.176 846.959 365.078 847.578 364.987C848.198 364.889 848.647 364.746 848.926 364.557C849.206 364.368 849.346 364.089 849.346 363.719V363.651C849.346 362.933 849.119 362.378 848.666 361.986C848.22 361.593 847.586 361.396 846.763 361.396C845.894 361.396 845.203 361.589 844.69 361.974C844.176 362.352 843.836 362.828 843.67 363.402L839.207 363.039C839.433 361.982 839.879 361.068 840.544 360.298C841.208 359.52 842.065 358.923 843.115 358.508C844.172 358.085 845.396 357.873 846.785 357.873C847.752 357.873 848.677 357.987 849.561 358.213C850.452 358.44 851.241 358.791 851.928 359.267C852.623 359.743 853.171 360.354 853.571 361.102C853.971 361.842 854.171 362.729 854.171 363.764V375.5H849.595V373.087H849.459C849.179 373.631 848.806 374.11 848.337 374.526C847.869 374.934 847.306 375.255 846.649 375.489C845.992 375.715 845.233 375.829 844.372 375.829ZM845.754 372.498C846.464 372.498 847.091 372.358 847.635 372.079C848.179 371.792 848.605 371.407 848.915 370.923C849.225 370.44 849.379 369.893 849.379 369.281V367.434C849.228 367.533 849.021 367.623 848.756 367.706C848.5 367.782 848.209 367.854 847.884 367.921C847.559 367.982 847.235 368.039 846.91 368.091C846.585 368.137 846.291 368.178 846.026 368.216C845.46 368.299 844.965 368.431 844.542 368.612C844.119 368.794 843.791 369.039 843.557 369.349C843.323 369.651 843.206 370.029 843.206 370.482C843.206 371.139 843.444 371.641 843.919 371.988C844.403 372.328 845.014 372.498 845.754 372.498ZM861.941 365.441V375.5H857.115V358.1H861.714V361.17H861.918C862.304 360.158 862.949 359.357 863.855 358.768C864.762 358.172 865.861 357.873 867.152 357.873C868.36 357.873 869.414 358.138 870.313 358.666C871.211 359.195 871.91 359.95 872.408 360.932C872.907 361.906 873.156 363.069 873.156 364.421V375.5H868.33V365.282C868.338 364.217 868.066 363.386 867.514 362.79C866.963 362.186 866.204 361.884 865.238 361.884C864.588 361.884 864.014 362.023 863.516 362.303C863.025 362.582 862.64 362.99 862.36 363.526C862.088 364.055 861.949 364.693 861.941 365.441ZM884.021 375.84C882.239 375.84 880.706 375.462 879.422 374.707C878.145 373.944 877.164 372.887 876.476 371.535C875.797 370.183 875.457 368.628 875.457 366.868C875.457 365.086 875.801 363.522 876.488 362.178C877.183 360.826 878.168 359.773 879.444 359.018C880.721 358.255 882.239 357.873 883.998 357.873C885.516 357.873 886.845 358.149 887.986 358.7C889.126 359.252 890.029 360.026 890.693 361.023C891.358 362.02 891.724 363.19 891.792 364.534H887.238C887.11 363.666 886.77 362.967 886.219 362.439C885.675 361.902 884.961 361.634 884.078 361.634C883.33 361.634 882.677 361.838 882.118 362.246C881.567 362.646 881.136 363.232 880.826 364.002C880.517 364.772 880.362 365.705 880.362 366.8C880.362 367.91 880.513 368.854 880.815 369.632C881.125 370.41 881.559 371.003 882.118 371.411C882.677 371.818 883.33 372.022 884.078 372.022C884.629 372.022 885.124 371.909 885.562 371.682C886.007 371.456 886.373 371.127 886.66 370.697C886.955 370.259 887.148 369.734 887.238 369.122H891.792C891.717 370.451 891.354 371.622 890.705 372.634C890.063 373.638 889.175 374.424 888.042 374.99C886.91 375.557 885.569 375.84 884.021 375.84ZM894.082 375.5V358.1H898.908V375.5H894.082ZM896.506 355.857C895.789 355.857 895.173 355.619 894.66 355.143C894.154 354.66 893.901 354.082 893.901 353.41C893.901 352.746 894.154 352.175 894.66 351.7C895.173 351.216 895.789 350.975 896.506 350.975C897.224 350.975 897.835 351.216 898.341 351.7C898.855 352.175 899.112 352.746 899.112 353.41C899.112 354.082 898.855 354.66 898.341 355.143C897.835 355.619 897.224 355.857 896.506 355.857ZM906.935 375.829C905.825 375.829 904.836 375.636 903.967 375.251C903.099 374.858 902.411 374.28 901.905 373.518C901.407 372.747 901.158 371.788 901.158 370.64C901.158 369.674 901.335 368.862 901.69 368.205C902.045 367.548 902.528 367.019 903.14 366.619C903.752 366.218 904.447 365.916 905.224 365.712C906.01 365.509 906.833 365.365 907.694 365.282C908.706 365.176 909.522 365.078 910.141 364.987C910.76 364.889 911.21 364.746 911.489 364.557C911.768 364.368 911.908 364.089 911.908 363.719V363.651C911.908 362.933 911.682 362.378 911.228 361.986C910.783 361.593 910.148 361.396 909.325 361.396C908.457 361.396 907.766 361.589 907.252 361.974C906.739 362.352 906.399 362.828 906.233 363.402L901.769 363.039C901.996 361.982 902.442 361.068 903.106 360.298C903.771 359.52 904.628 358.923 905.678 358.508C906.735 358.085 907.958 357.873 909.348 357.873C910.315 357.873 911.24 357.987 912.123 358.213C913.014 358.44 913.804 358.791 914.491 359.267C915.186 359.743 915.733 360.354 916.133 361.102C916.534 361.842 916.734 362.729 916.734 363.764V375.5H912.157V373.087H912.021C911.742 373.631 911.368 374.11 910.9 374.526C910.432 374.934 909.869 375.255 909.212 375.489C908.555 375.715 907.796 375.829 906.935 375.829ZM908.317 372.498C909.027 372.498 909.654 372.358 910.198 372.079C910.741 371.792 911.168 371.407 911.478 370.923C911.787 370.44 911.942 369.893 911.942 369.281V367.434C911.791 367.533 911.583 367.623 911.319 367.706C911.062 367.782 910.772 367.854 910.447 367.921C910.122 367.982 909.797 368.039 909.473 368.091C909.148 368.137 908.853 368.178 908.589 368.216C908.023 368.299 907.528 368.431 907.105 368.612C906.682 368.794 906.354 369.039 906.119 369.349C905.885 369.651 905.768 370.029 905.768 370.482C905.768 371.139 906.006 371.641 906.482 371.988C906.965 372.328 907.577 372.498 908.317 372.498ZM924.504 352.3V375.5H919.678V352.3H924.504ZM934.243 375.5V352.3H949.604V356.344H939.148V361.872H948.584V365.916H939.148V375.5H934.243ZM951.732 375.5V358.1H956.411V361.136H956.592C956.909 360.056 957.442 359.24 958.189 358.689C958.937 358.13 959.798 357.851 960.772 357.851C961.014 357.851 961.274 357.866 961.554 357.896C961.833 357.926 962.079 357.968 962.29 358.021V362.303C962.064 362.235 961.75 362.174 961.35 362.121C960.95 362.069 960.583 362.042 960.251 362.042C959.541 362.042 958.907 362.197 958.348 362.507C957.797 362.809 957.359 363.232 957.034 363.775C956.717 364.319 956.558 364.946 956.558 365.656V375.5H951.732ZM971.105 375.84C969.315 375.84 967.774 375.477 966.483 374.752C965.199 374.02 964.21 372.985 963.515 371.648C962.82 370.304 962.473 368.714 962.473 366.879C962.473 365.089 962.82 363.519 963.515 362.167C964.21 360.815 965.188 359.761 966.449 359.006C967.718 358.251 969.206 357.873 970.912 357.873C972.06 357.873 973.129 358.058 974.118 358.429C975.115 358.791 975.984 359.339 976.724 360.071C977.471 360.804 978.053 361.725 978.468 362.835C978.884 363.938 979.091 365.229 979.091 366.709V368.035H964.399V365.044H974.549C974.549 364.349 974.398 363.734 974.095 363.198C973.793 362.661 973.374 362.242 972.838 361.94C972.309 361.631 971.694 361.476 970.992 361.476C970.259 361.476 969.61 361.646 969.043 361.986C968.484 362.318 968.046 362.767 967.729 363.334C967.412 363.892 967.25 364.515 967.242 365.203V368.046C967.242 368.907 967.401 369.651 967.718 370.278C968.042 370.905 968.499 371.388 969.088 371.728C969.678 372.068 970.376 372.237 971.184 372.237C971.72 372.237 972.211 372.162 972.657 372.011C973.102 371.86 973.484 371.633 973.801 371.331C974.118 371.029 974.36 370.659 974.526 370.221L978.989 370.516C978.763 371.588 978.298 372.524 977.596 373.325C976.901 374.118 976.002 374.737 974.9 375.183C973.805 375.621 972.54 375.84 971.105 375.84ZM989.37 375.84C987.58 375.84 986.04 375.477 984.748 374.752C983.464 374.02 982.475 372.985 981.78 371.648C981.085 370.304 980.738 368.714 980.738 366.879C980.738 365.089 981.085 363.519 981.78 362.167C982.475 360.815 983.453 359.761 984.714 359.006C985.983 358.251 987.471 357.873 989.178 357.873C990.325 357.873 991.394 358.058 992.383 358.429C993.38 358.791 994.249 359.339 994.989 360.071C995.737 360.804 996.318 361.725 996.733 362.835C997.149 363.938 997.356 365.229 997.356 366.709V368.035H982.664V365.044H992.814C992.814 364.349 992.663 363.734 992.361 363.198C992.059 362.661 991.64 362.242 991.103 361.94C990.575 361.631 989.959 361.476 989.257 361.476C988.524 361.476 987.875 361.646 987.308 361.986C986.75 362.318 986.312 362.767 985.994 363.334C985.677 363.892 985.515 364.515 985.507 365.203V368.046C985.507 368.907 985.666 369.651 985.983 370.278C986.308 370.905 986.765 371.388 987.354 371.728C987.943 372.068 988.641 372.237 989.449 372.237C989.986 372.237 990.476 372.162 990.922 372.011C991.368 371.86 991.749 371.633 992.066 371.331C992.383 371.029 992.625 370.659 992.791 370.221L997.254 370.516C997.028 371.588 996.563 372.524 995.861 373.325C995.166 374.118 994.268 374.737 993.165 375.183C992.07 375.621 990.805 375.84 989.37 375.84ZM1006.12 375.783C1004.8 375.783 1003.6 375.443 1002.53 374.764C1001.46 374.076 1000.62 373.068 999.989 371.739C999.37 370.402 999.06 368.764 999.06 366.823C999.06 364.829 999.381 363.171 1000.02 361.85C1000.66 360.52 1001.52 359.527 1002.58 358.87C1003.66 358.206 1004.83 357.873 1006.11 357.873C1007.08 357.873 1007.89 358.04 1008.54 358.372C1009.2 358.697 1009.73 359.104 1010.13 359.595C1010.54 360.079 1010.84 360.554 1011.06 361.023H1011.2V352.3H1016.02V375.5H1011.26V372.713H1011.06C1010.83 373.197 1010.51 373.676 1010.09 374.152C1009.69 374.62 1009.15 375.009 1008.5 375.319C1007.85 375.628 1007.05 375.783 1006.12 375.783ZM1007.65 371.943C1008.42 371.943 1009.08 371.732 1009.62 371.309C1010.16 370.878 1010.58 370.278 1010.86 369.507C1011.16 368.737 1011.31 367.835 1011.31 366.8C1011.31 365.765 1011.16 364.867 1010.88 364.104C1010.59 363.341 1010.17 362.752 1009.63 362.337C1009.09 361.921 1008.42 361.714 1007.65 361.714C1006.85 361.714 1006.19 361.929 1005.64 362.359C1005.1 362.79 1004.69 363.386 1004.41 364.149C1004.13 364.912 1003.99 365.796 1003.99 366.8C1003.99 367.812 1004.13 368.707 1004.41 369.485C1004.69 370.255 1005.11 370.859 1005.64 371.297C1006.19 371.728 1006.85 371.943 1007.65 371.943ZM1027.05 375.84C1025.29 375.84 1023.77 375.466 1022.48 374.718C1021.21 373.963 1020.22 372.913 1019.53 371.569C1018.83 370.217 1018.48 368.65 1018.48 366.868C1018.48 365.071 1018.83 363.5 1019.53 362.155C1020.22 360.804 1021.21 359.754 1022.48 359.006C1023.77 358.251 1025.29 357.873 1027.05 357.873C1028.81 357.873 1030.33 358.251 1031.6 359.006C1032.89 359.754 1033.87 360.804 1034.57 362.155C1035.26 363.5 1035.61 365.071 1035.61 366.868C1035.61 368.65 1035.26 370.217 1034.57 371.569C1033.87 372.913 1032.89 373.963 1031.6 374.718C1030.33 375.466 1028.81 375.84 1027.05 375.84ZM1027.07 372.102C1027.87 372.102 1028.54 371.875 1029.08 371.422C1029.61 370.961 1030.02 370.334 1030.29 369.541C1030.57 368.748 1030.71 367.846 1030.71 366.834C1030.71 365.822 1030.57 364.92 1030.29 364.127C1030.02 363.334 1029.61 362.707 1029.08 362.246C1028.54 361.785 1027.87 361.555 1027.07 361.555C1026.26 361.555 1025.58 361.785 1025.03 362.246C1024.49 362.707 1024.08 363.334 1023.8 364.127C1023.52 364.92 1023.39 365.822 1023.39 366.834C1023.39 367.846 1023.52 368.748 1023.8 369.541C1024.08 370.334 1024.49 370.961 1025.03 371.422C1025.58 371.875 1026.26 372.102 1027.07 372.102ZM1037.95 375.5V358.1H1042.55V361.17H1042.75C1043.12 360.15 1043.72 359.346 1044.57 358.757C1045.41 358.168 1046.42 357.873 1047.6 357.873C1048.79 357.873 1049.81 358.172 1050.65 358.768C1051.49 359.357 1052.05 360.158 1052.32 361.17H1052.51C1052.86 360.173 1053.5 359.376 1054.43 358.78C1055.37 358.176 1056.47 357.873 1057.75 357.873C1059.37 357.873 1060.69 358.391 1061.7 359.425C1062.72 360.452 1063.23 361.91 1063.23 363.798V375.5H1058.42V364.75C1058.42 363.783 1058.16 363.058 1057.65 362.575C1057.14 362.091 1056.49 361.85 1055.72 361.85C1054.85 361.85 1054.16 362.129 1053.67 362.688C1053.18 363.239 1052.94 363.968 1052.94 364.874V375.5H1048.26V364.648C1048.26 363.794 1048.01 363.115 1047.52 362.609C1047.04 362.103 1046.4 361.85 1045.61 361.85C1045.07 361.85 1044.59 361.986 1044.16 362.257C1043.73 362.522 1043.4 362.896 1043.15 363.379C1042.9 363.855 1042.78 364.414 1042.78 365.055V375.5H1037.95Z" fill="url(#paint4_linear_217_700)"/>
<defs>
<filter id="filter0_f_217_700" x="-344" y="0" width="2129" height="1400" filterUnits="userSpaceOnUse" color-interpolation-filters="sRGB">
<feFlood flood-opacity="0" result="BackgroundImageFix"/>
<feBlend mode="normal" in="SourceGraphic" in2="BackgroundImageFix" result="shape"/>
<feGaussianBlur stdDeviation="192" result="effect1_foregroundBlur_217_700"/>
</filter>
<linearGradient id="paint0_linear_217_700" x1="0" y1="0.5" x2="500" y2="0.5" gradientUnits="userSpaceOnUse">
<stop stop-opacity="0"/>
<stop offset="0.5" stop-color="#0284C7" stop-opacity="0.65"/>
<stop offset="1" stop-opacity="0"/>
</linearGradient>
<radialGradient id="paint1_radial_217_700" cx="0" cy="0" r="1" gradientUnits="userSpaceOnUse" gradientTransform="translate(300 100) rotate(18.4349) scale(316.228 189.737)">
<stop stop-color="#C7C7C7" stop-opacity="0.05"/>
<stop offset="0.7" stop-opacity="0"/>
</radialGradient>
<linearGradient id="paint2_linear_217_700" x1="0" y1="316" x2="1108" y2="316" gradientUnits="userSpaceOnUse">
<stop stop-color="#06B6D4"/>
<stop offset="1" stop-color="#1E40AF"/>
</linearGradient>
<linearGradient id="paint3_linear_217_700" x1="0" y1="0.5" x2="101.91" y2="0.5" gradientUnits="userSpaceOnUse">
<stop stop-color="#22D3EE" stop-opacity="0"/>
<stop offset="0.5" stop-color="#22D3EE" stop-opacity="0.9"/>
<stop offset="1" stop-color="#22D3EE" stop-opacity="0"/>
</linearGradient>
<linearGradient id="paint4_linear_217_700" x1="375" y1="343.5" x2="379.616" y2="423.233" gradientUnits="userSpaceOnUse">
<stop stop-color="#F4F4F5"/>
<stop offset="1" stop-color="#52525B"/>
</linearGradient>
</defs>
</svg>
