<svg width="28" height="28" viewBox="0 0 28 28" fill="none" xmlns="http://www.w3.org/2000/svg">
<path d="M23.6222 1.3999H4.1778C2.65002 1.3999 1.40002 2.6499 1.40002 4.17768V23.6221C1.40002 25.1513 2.65002 26.3999 4.1778 26.3999H13.9V16.6777H11.1222V13.2402H13.9V10.393C13.9 7.3874 15.5834 5.27629 19.1306 5.27629L21.6347 5.27907V8.89712H19.9722C18.5917 8.89712 18.0667 9.93324 18.0667 10.8943V13.2416H21.6334L20.8445 16.6777H18.0667V26.3999H23.6222C25.15 26.3999 26.4 25.1513 26.4 23.6221V4.17768C26.4 2.6499 25.15 1.3999 23.6222 1.3999Z" fill="white"/>
</svg>
