<svg width="28" height="28" viewBox="0 0 28 28" fill="none" xmlns="http://www.w3.org/2000/svg">
<path d="M5.57143 1C3.60156 1 2 2.60156 2 4.57143V22.4286C2 24.3984 3.60156 26 5.57143 26H23.4286C25.3984 26 27 24.3984 27 22.4286V4.57143C27 2.60156 25.3984 1 23.4286 1H5.57143ZM22.1507 5.6875L16.3583 12.3058L23.1719 21.3125H17.8371L13.6629 15.8493L8.88058 21.3125H6.22991L12.4241 14.231L5.88951 5.6875H11.3583L15.1362 10.6819L19.5 5.6875H22.1507ZM20.0413 19.7277L10.5603 7.18862H8.98103L18.5681 19.7277H20.0357H20.0413Z" fill="white"/>
</svg>
