<svg width="94" height="22" viewBox="0 0 94 22" fill="none" xmlns="http://www.w3.org/2000/svg">
<path d="M23.1454 13.7565V9.57494H19.9071L26.0599 1.21192L32.2127 9.57494H29.2982V13.7565H23.1454Z" fill="#46BE82"/>
<path d="M23.1327 13.876H29.2975V16.5044H23.1327V13.876Z" fill="#2D96BE"/>
<path d="M23.1327 16.6237H29.2975V19.2521H23.1327V16.6237Z" fill="#FF9B19"/>
<path d="M23.1327 19.3716H29.2975V22H23.1327V19.3716Z" fill="#E61932"/>
<path d="M86.1525 21.8275C84.4686 21.8275 82.9859 21.4981 81.7047 20.8391C80.4417 20.1802 79.4624 19.2833 78.7669 18.1484C78.0713 16.9953 77.7235 15.6866 77.7235 14.2222C77.7235 12.7396 78.0622 11.4309 78.7394 10.296C79.435 9.14288 80.3776 8.24598 81.5674 7.60535C82.7571 6.9464 84.1025 6.61693 85.6034 6.61693C87.0494 6.61693 88.349 6.9281 89.5021 7.55044C90.6736 8.15447 91.5979 9.03306 92.2752 10.1862C92.9524 11.3211 93.2911 12.6847 93.2911 14.2771C93.2911 14.4419 93.2819 14.6341 93.2636 14.8537C93.2453 15.0551 93.227 15.2473 93.2087 15.4303H81.2104V12.9318H90.9573L89.31 13.6731C89.31 12.9043 89.1544 12.2363 88.8432 11.6688C88.532 11.1014 88.1019 10.6621 87.5528 10.3509C87.0037 10.0215 86.363 9.85673 85.6309 9.85673C84.8987 9.85673 84.2489 10.0215 83.6815 10.3509C83.1324 10.6621 82.7022 11.1106 82.3911 11.6963C82.0799 12.2637 81.9243 12.941 81.9243 13.728V14.387C81.9243 15.1923 82.0982 15.9062 82.446 16.5285C82.812 17.1326 83.3154 17.5993 83.956 17.9288C84.615 18.24 85.3837 18.3955 86.2623 18.3955C87.0494 18.3955 87.7358 18.2766 88.3215 18.0386C88.9256 17.8007 89.4747 17.4437 89.9689 16.9678L92.2477 19.4389C91.5705 20.2076 90.7194 20.8025 89.6943 21.2235C88.6693 21.6262 87.4887 21.8275 86.1525 21.8275Z" fill="white"/>
<path d="M70.5635 21.6078V6.83653H74.8467V21.6078H70.5635ZM72.7051 4.77734C71.918 4.77734 71.2774 4.54854 70.7832 4.09094C70.289 3.63334 70.0419 3.06592 70.0419 2.38867C70.0419 1.71142 70.289 1.144 70.7832 0.6864C71.2774 0.2288 71.918 0 72.7051 0C73.4922 0 74.1328 0.219648 74.627 0.658944C75.1212 1.07994 75.3683 1.62905 75.3683 2.3063C75.3683 3.02016 75.1212 3.61504 74.627 4.09094C74.1511 4.54854 73.5105 4.77734 72.7051 4.77734Z" fill="white"/>
<path d="M60.5584 6.61685C61.7298 6.61685 62.7731 6.8548 63.6883 7.3307C64.6218 7.7883 65.354 8.50216 65.8848 9.47227C66.4156 10.4241 66.681 11.6504 66.681 13.1514V21.6078H62.3979V13.8103C62.3979 12.6206 62.1325 11.742 61.6017 11.1745C61.0892 10.6071 60.357 10.3234 59.4052 10.3234C58.728 10.3234 58.1148 10.4698 57.5656 10.7627C57.0348 11.0373 56.6138 11.4674 56.3027 12.0531C56.0098 12.6389 55.8634 13.3893 55.8634 14.3045V21.6078H51.5802V1.23548H55.8634V10.9274L54.9024 9.69192C55.4332 8.7035 56.1929 7.94389 57.1813 7.41307C58.1697 6.88226 59.2954 6.61685 60.5584 6.61685Z" fill="white"/>
<path d="M42.5778 21.8275C40.9854 21.8275 39.5668 21.5072 38.3221 20.8666C37.0775 20.2076 36.0982 19.3016 35.3843 18.1484C34.6888 16.9953 34.341 15.6866 34.341 14.2222C34.341 12.7396 34.6888 11.4309 35.3843 10.296C36.0982 9.14288 37.0775 8.24598 38.3221 7.60535C39.5668 6.9464 40.9854 6.61693 42.5778 6.61693C44.1336 6.61693 45.4881 6.9464 46.6413 7.60535C47.7944 8.24598 48.6456 9.17034 49.1947 10.3784L45.8725 12.163C45.4881 11.4675 45.0031 10.955 44.4174 10.6255C43.8499 10.296 43.2276 10.1313 42.5504 10.1313C41.8182 10.1313 41.1592 10.296 40.5735 10.6255C39.9878 10.955 39.521 11.4217 39.1733 12.0258C38.8438 12.6298 38.6791 13.3619 38.6791 14.2222C38.6791 15.0825 38.8438 15.8147 39.1733 16.4187C39.521 17.0227 39.9878 17.4895 40.5735 17.819C41.1592 18.1484 41.8182 18.3132 42.5504 18.3132C43.2276 18.3132 43.8499 18.1576 44.4174 17.8464C45.0031 17.5169 45.4881 16.9953 45.8725 16.2814L49.1947 18.0935C48.6456 19.2833 47.7944 20.2076 46.6413 20.8666C45.4881 21.5072 44.1336 21.8275 42.5778 21.8275Z" fill="white"/>
<path d="M0.000236511 21.6078V2.38861H8.31939C10.04 2.38861 11.5226 2.67232 12.7673 3.23974C14.0119 3.78886 14.9729 4.58508 15.6501 5.62841C16.3274 6.67174 16.666 7.91641 16.666 9.36242C16.666 10.7901 16.3274 12.0257 15.6501 13.069C14.9729 14.094 14.0119 14.8811 12.7673 15.4302C11.5226 15.9793 10.04 16.2539 8.31939 16.2539H2.47127L4.4481 14.3045V21.6078H0.000236511ZM12.2181 21.6078L7.41335 14.634H12.1632L17.0229 21.6078H12.2181ZM4.4481 14.7987L2.47127 12.7121H8.07229C9.44509 12.7121 10.4701 12.4192 11.1474 11.8335C11.8246 11.2294 12.1632 10.4057 12.1632 9.36242C12.1632 8.30079 11.8246 7.47711 11.1474 6.89139C10.4701 6.30566 9.44509 6.01279 8.07229 6.01279H2.47127L4.4481 3.89869V14.7987Z" fill="white"/>
</svg>
