<svg width="28" height="28" viewBox="0 0 28 28" fill="none" xmlns="http://www.w3.org/2000/svg">
<path d="M23.7222 1.5C24.4589 1.5 25.1655 1.79266 25.6864 2.31359C26.2073 2.83453 26.5 3.54107 26.5 4.27778V23.7222C26.5 24.4589 26.2073 25.1655 25.6864 25.6864C25.1655 26.2073 24.4589 26.5 23.7222 26.5H4.27778C3.54107 26.5 2.83453 26.2073 2.31359 25.6864C1.79266 25.1655 1.5 24.4589 1.5 23.7222V4.27778C1.5 3.54107 1.79266 2.83453 2.31359 2.31359C2.83453 1.79266 3.54107 1.5 4.27778 1.5H23.7222ZM23.0278 23.0278V15.6667C23.0278 14.4658 22.5507 13.3142 21.7016 12.465C20.8525 11.6159 19.7008 11.1389 18.5 11.1389C17.3194 11.1389 15.9444 11.8611 15.2778 12.9444V11.4028H11.4028V23.0278H15.2778V16.1806C15.2778 15.1111 16.1389 14.2361 17.2083 14.2361C17.724 14.2361 18.2186 14.441 18.5833 14.8056C18.9479 15.1703 19.1528 15.6649 19.1528 16.1806V23.0278H23.0278ZM6.88889 9.22222C7.50773 9.22222 8.10122 8.97639 8.53881 8.53881C8.97639 8.10122 9.22222 7.50773 9.22222 6.88889C9.22222 5.59722 8.18056 4.54167 6.88889 4.54167C6.26637 4.54167 5.66934 4.78896 5.22915 5.22915C4.78896 5.66934 4.54167 6.26637 4.54167 6.88889C4.54167 8.18056 5.59722 9.22222 6.88889 9.22222ZM8.81944 23.0278V11.4028H4.97222V23.0278H8.81944Z" fill="white"/>
</svg>
