<svg width="36" height="36" viewBox="0 0 36 36" fill="none" xmlns="http://www.w3.org/2000/svg">
<path d="M20.595 5.26496L23.235 10.545C23.595 11.28 24.555 11.985 25.365 12.12L30.15 12.915C33.21 13.425 33.93 15.645 31.725 17.835L28.005 21.555C27.375 22.185 27.03 23.4 27.225 24.27L28.29 28.875C29.13 32.52 27.195 33.93 23.97 32.025L19.485 29.37C18.675 28.89 17.34 28.89 16.515 29.37L12.03 32.025C8.81999 33.93 6.86999 32.505 7.70999 28.875L8.77499 24.27C8.96999 23.4 8.62499 22.185 7.99499 21.555L4.27499 17.835C2.08499 15.645 2.78999 13.425 5.84999 12.915L10.635 12.12C11.43 11.985 12.39 11.28 12.75 10.545L15.39 5.26496C16.83 2.39996 19.17 2.39996 20.595 5.26496Z" stroke="#FFB81D" stroke-width="1.5" stroke-linecap="round" stroke-linejoin="round"/>
</svg>
